<?xml version="1.0" encoding="UTF-8" standalone="no"?>
<svg
   xmlns:dc="http://purl.org/dc/elements/1.1/"
   xmlns:cc="http://creativecommons.org/ns#"
   xmlns:rdf="http://www.w3.org/1999/02/22-rdf-syntax-ns#"
   xmlns:svg="http://www.w3.org/2000/svg"
   xmlns="http://www.w3.org/2000/svg"
   version="1.1"
   id="svg2"
   viewBox="0 0 35692.009 4216.7411"
   height="178.48639"
   width="1510.7729">
  <metadata
     id="metadata23">
    <rdf:RDF>
      <cc:Work
         rdf:about="">
        <dc:format>image/svg+xml</dc:format>
        <dc:type
           rdf:resource="http://purl.org/dc/dcmitype/StillImage" />
        <dc:title></dc:title>
      </cc:Work>
    </rdf:RDF>
  </metadata>
  <defs
     id="defs6">
    <polygon
       id="Star7"
       points="7.0364833,-5.6114082 3.8997116,-0.89008374 8.7743512,2.0026884 3.1273259,2.4939592 3.9049537,8.1087198 0,4 -3.9049537,8.1087198 -3.1273259,2.4939592 -8.7743512,2.0026884 -3.8997116,-0.89008374 -7.0364833,-5.6114082 -1.735535,-3.6038755 0,-9 1.735535,-3.6038755 " />
    <polygon
       id="Star5"
       points="0,-9 0,-9 2.351141,-3.236068 8.5595086,-2.7811529 3.8042261,1.236068 5.2900673,7.2811529 0,4 -5.2900673,7.2811529 -3.8042261,1.236068 -8.5595086,-2.7811529 -2.351141,-3.236068 " />
  </defs>
  <g
     style="fill:#000000;fill-opacity:0"
     transform="scale(165.15952,59.473165)"
     id="g3816">
    <path
       style="fill:#000000;fill-opacity:0;fill-rule:nonzero;stroke:none"
       d="M 0,0 H 216.10629 V 70.901573 H 0 Z"
       id="path3818" />
  </g>
  <g
     transform="matrix(106.81102,0,0,106.81102,29195.558,151.71032)"
     id="g3830">
    <path
       style="fill:none;stroke:#323232;stroke-width:3.72047257px;stroke-linecap:round;stroke-linejoin:round;stroke-dasharray:none;stroke-opacity:1"
       d="M 30.968504,30.401576 14.208662,34.759844 1.8425197,22.641733 6.2362206,6.2007876 22.996063,1.8779528 35.362205,13.996064 Z"
       id="path3832" />
    <path
       style="fill:#323232;fill-opacity:1;fill-rule:nonzero;stroke:none"
       d="m 9.7086616,24.236221 1.0984254,-4.074803 1.452756,0.389764 c -0.106299,1.346457 0.177165,2.444882 0.81496,3.330709 0.673229,0.850393 1.736221,1.488189 3.22441,1.877952 1.204724,0.318898 2.161417,0.354331 2.905512,0.07087 0.744094,-0.283465 1.240157,-0.885827 1.488189,-1.771654 0.177165,-0.673228 0.106299,-1.275591 -0.212599,-1.807087 -0.318897,-0.496063 -1.098425,-1.062992 -2.338582,-1.771653 l -2.409449,-1.346457 c -1.594488,-0.885827 -2.622048,-1.807087 -3.118111,-2.728347 -0.460629,-0.956693 -0.531496,-2.161417 -0.141732,-3.57874 0.46063,-1.73622 1.38189,-2.9055118 2.799213,-3.5433071 1.38189,-0.6732284 3.11811,-0.7086614 5.173228,-0.1417323 1.027559,0.2480315 2.055118,0.6377953 3.082677,1.0984254 1.062993,0.46063 2.125985,1.027559 3.22441,1.665354 L 25.72441,15.732284 24.236221,15.34252 c 0.106299,-1.240157 -0.177165,-2.267716 -0.779528,-3.011811 -0.602362,-0.744094 -1.594488,-1.311024 -3.011811,-1.700787 -1.133858,-0.318898 -2.055118,-0.318898 -2.763779,-0.1063 -0.673229,0.248032 -1.133859,0.779528 -1.346457,1.559056 -0.177165,0.708661 -0.141732,1.311023 0.177165,1.807086 0.283465,0.496063 1.169292,1.133859 2.657481,1.948819 l 2.409449,1.346457 c 1.488189,0.814961 2.515748,1.771654 3.011811,2.799213 0.496063,1.062992 0.531496,2.338582 0.141732,3.826772 -0.496063,1.73622 -1.452756,2.905511 -2.905512,3.472441 -1.417323,0.602362 -3.330709,0.566929 -5.669291,-0.03543 -1.133859,-0.318898 -2.232284,-0.708662 -3.295276,-1.204725 -1.062992,-0.496063 -2.125984,-1.098425 -3.1535434,-1.807087 z"
       id="path3834" />
  </g>
</svg>
